<!-- Generated by IcoMoon.io -->
<svg version="1.1" xmlns="http://www.w3.org/2000/svg" width="44" height="32" viewBox="0 0 44 32">
<title>brand</title>
<path d="M3.309 26.413c0.17 0.193 0.259 0.433 0.255 0.68 0.001 0.016 0.001 0.034 0.001 0.052 0 0.152-0.034 0.296-0.095 0.425l0.003-0.006c-0.073 0.155-0.176 0.284-0.303 0.386l-0.002 0.002c-0.288 0.199-0.645 0.318-1.029 0.318-0.042 0-0.084-0.001-0.125-0.004l0.006 0h-2.020v-4.306h1.978c0.035-0.002 0.075-0.004 0.116-0.004 0.364 0 0.703 0.108 0.987 0.294l-0.007-0.004c0.128 0.097 0.23 0.222 0.296 0.362s0.097 0.292 0.088 0.445c0.011 0.237-0.070 0.471-0.23 0.658-0.154 0.171-0.366 0.29-0.602 0.337 0.268 0.045 0.51 0.175 0.682 0.369zM0.94 25.763h0.846c0.192 0.013 0.383-0.038 0.538-0.143 0.061-0.051 0.11-0.115 0.143-0.187l0.001-0.003c0.025-0.056 0.039-0.12 0.039-0.189 0-0.014-0.001-0.029-0.002-0.043l0 0.002c0.001-0.011 0.001-0.024 0.001-0.037 0-0.070-0.015-0.136-0.041-0.196l0.001 0.003c-0.033-0.076-0.081-0.14-0.141-0.191l-0.001-0.001c-0.136-0.092-0.304-0.147-0.485-0.147-0.024 0-0.048 0.001-0.072 0.003l0.003-0h-0.833v1.13zM2.406 27.414c0.066-0.052 0.119-0.119 0.154-0.194l0.001-0.003c0.028-0.060 0.045-0.131 0.045-0.206 0-0.012-0-0.024-0.001-0.036l0 0.002c0.001-0.009 0.001-0.020 0.001-0.031 0-0.077-0.017-0.15-0.048-0.215l0.001 0.003c-0.038-0.080-0.092-0.146-0.157-0.198l-0.001-0.001c-0.146-0.099-0.325-0.158-0.518-0.158-0.020 0-0.039 0.001-0.059 0.002l0.003-0h-0.887v1.185h0.899c0.202 0.010 0.402-0.042 0.568-0.15zM7.353 28.264l-1.099-1.683h-0.414v1.683h-0.947v-4.306h1.793c0.038-0.003 0.083-0.004 0.128-0.004 0.422 0 0.811 0.139 1.124 0.374l-0.005-0.003c0.25 0.234 0.402 0.542 0.426 0.869s-0.079 0.65-0.293 0.913c-0.222 0.229-0.517 0.387-0.847 0.437l-0.008 0.001 1.172 1.72h-1.030zM5.839 25.994h0.774c0.538 0 0.807-0.218 0.807-0.653 0.001-0.010 0.001-0.023 0.001-0.035 0-0.082-0.016-0.159-0.046-0.23l0.001 0.004c-0.037-0.087-0.089-0.162-0.153-0.222l-0-0c-0.147-0.111-0.333-0.178-0.535-0.178-0.026 0-0.052 0.001-0.078 0.003l0.003-0h-0.783l0.009 1.311zM12.529 27.398h-1.887l-0.333 0.867h-0.993l1.732-4.259h1.073l1.726 4.259h-0.992l-0.326-0.867zM12.276 26.745l-0.689-1.818-0.689 1.818h1.379zM19.007 28.264h-0.939l-2.108-2.929v2.929h-0.938v-4.306h0.938l2.108 2.945v-2.945h0.939v4.307zM24.371 27.233c-0.195 0.326-0.49 0.59-0.851 0.76-0.365 0.172-0.794 0.272-1.245 0.272-0.027 0-0.054-0-0.081-0.001l0.004 0h-1.672v-4.306h1.673c0.024-0.001 0.051-0.001 0.079-0.001 0.45 0 0.877 0.098 1.262 0.273l-0.019-0.008c0.36 0.167 0.656 0.429 0.85 0.751 0.193 0.351 0.294 0.737 0.294 1.13s-0.101 0.779-0.294 1.13zM23.295 27.13c0.268-0.286 0.415-0.65 0.415-1.028s-0.147-0.742-0.415-1.027c-0.291-0.23-0.664-0.369-1.069-0.369-0.038 0-0.076 0.001-0.113 0.004l0.005-0h-0.653v2.787h0.653c0.032 0.002 0.070 0.003 0.108 0.003 0.405 0 0.777-0.139 1.072-0.372l-0.004 0.003zM13.117 0s12.131 4.193 11.874 10.262v10.264s-12.122-4.196-11.87-10.265l-0.004-10.261zM35.798 18.122c2.291-1.443 4.941-2.337 7.708-2.6v-3.213c-3.187 1.125-5.892 3.165-7.708 5.814z"></path>
<path d="M34.422 19.091c1.875-3.457 5.126-6.125 9.084-7.455v-9.258s-17.277 5.974-16.911 14.616v14.612s0.77-0.267 1.981-0.768c0-0.467 0-0.938 0.056-1.412 0.357-4.011 2.44-7.729 5.791-10.335z"></path>
<path d="M32.779 24.519c0.102-1.105 0.315-2.121 0.632-3.090l-0.028 0.099c-2.087 2.25-3.35 5.043-3.613 7.985-0.026 0.278-0.040 0.555-0.046 0.842 1.441-0.63 2.532-1.167 3.601-1.74l-0.278 0.136c-0.306-1.391-0.397-2.816-0.269-4.232zM33.466 24.572c-0.034 0.355-0.053 0.768-0.053 1.186 0 0.936 0.097 1.85 0.282 2.732l-0.015-0.086c4.72-2.586 10.024-6.582 9.819-11.411v-0.421c-3.373 0.346-6.527 1.695-8.981 3.842-0.541 1.216-0.915 2.626-1.048 4.106l-0.004 0.052z"></path>
</svg>
